G04*
G04 #@! TF.GenerationSoftware,Altium Limited,Altium Designer,18.1.7 (191)*
G04*
G04 Layer_Color=8388736*
%FSLAX44Y44*%
%MOMM*%
G71*
G01*
G75*
%ADD17R,1.4732X2.9332*%
%ADD18R,0.8032X0.8032*%
%ADD19R,0.8032X0.8032*%
%ADD20R,3.2032X3.2032*%
%ADD21C,1.7272*%
D17*
X1463500Y476350D02*
D03*
X1438100Y503650D02*
D03*
X1412700Y476350D02*
D03*
X1387300Y503650D02*
D03*
X1361900Y476350D02*
D03*
X1336500Y503650D02*
D03*
X1233500Y476350D02*
D03*
X1208100Y503650D02*
D03*
X1182700Y476350D02*
D03*
X1157300Y503650D02*
D03*
X1131900Y476350D02*
D03*
X1106500Y503650D02*
D03*
X521500Y508650D02*
D03*
X546900Y481350D02*
D03*
X572300Y508650D02*
D03*
X597700Y481350D02*
D03*
X623100Y508650D02*
D03*
X648500Y481350D02*
D03*
D18*
X560000Y455080D02*
D03*
Y444920D02*
D03*
X360000Y559920D02*
D03*
Y570080D02*
D03*
X585000Y455080D02*
D03*
Y444920D02*
D03*
X610000Y455080D02*
D03*
Y444920D02*
D03*
X1590000Y559920D02*
D03*
Y570080D02*
D03*
D19*
X982980Y533400D02*
D03*
X972820D02*
D03*
D20*
X1580000Y1175000D02*
D03*
Y790000D02*
D03*
X370000Y1175000D02*
D03*
Y790000D02*
D03*
X1580000Y1560000D02*
D03*
X370000D02*
D03*
D21*
X1545000Y500000D02*
D03*
Y1850000D02*
D03*
X407000D02*
D03*
Y500000D02*
D03*
M02*
