G04*
G04 #@! TF.GenerationSoftware,Altium Limited,Altium Designer,18.1.7 (191)*
G04*
G04 Layer_Physical_Order=1*
G04 Layer_Color=255*
%FSLAX44Y44*%
%MOMM*%
G71*
G01*
G75*
%ADD10C,0.2000*%
%ADD11R,2.0000X2.5400*%
%ADD12R,1.8000X2.5400*%
%ADD13R,0.6000X0.6000*%
%ADD14R,0.6000X0.6000*%
%ADD15R,3.0000X3.0000*%
%ADD22R,13.5000X115.0000*%
%ADD23R,95.8100X106.0000*%
%ADD24R,17.9200X130.0000*%
%ADD25R,28.3100X26.5000*%
%ADD26C,1.5240*%
D10*
X1590000Y570000D02*
X1635000D01*
X320000D02*
X370000D01*
X535000Y465000D02*
Y483000D01*
X515000Y445000D02*
X535000Y465000D01*
X325000Y445000D02*
X515000D01*
X635000Y479900D02*
Y500000D01*
X597000D02*
X635000D01*
X597000Y445000D02*
Y500000D01*
X985000Y505000D02*
Y535000D01*
X585000Y505000D02*
X985000D01*
X585000Y455080D02*
Y505000D01*
X595000Y445000D02*
X597000D01*
X325000Y560000D02*
X359920D01*
X360000Y559920D01*
X545000Y455000D02*
X560000D01*
X320000Y555000D02*
X325000Y560000D01*
X370000Y550000D02*
Y570000D01*
X315000Y565000D02*
X320000Y570000D01*
X330000Y550000D02*
X370000D01*
X325000Y545000D02*
X330000Y550000D01*
X1590000Y560000D02*
X1630000D01*
X610000Y455000D02*
X620000D01*
X1630000Y440000D02*
Y560000D01*
X620000Y440000D02*
X1630000D01*
X1635000Y435000D02*
Y570000D01*
X609920Y444920D02*
X610000Y445000D01*
X585000Y444920D02*
X609920D01*
X560000D02*
X585000D01*
X560000Y455080D02*
Y485000D01*
X535000D02*
Y525000D01*
X543400Y533400D01*
X972820D01*
X320000Y440000D02*
Y555000D01*
X325000Y445000D02*
Y545000D01*
X530000Y440000D02*
X545000Y455000D01*
X320000Y440000D02*
X530000D01*
X610000Y455080D02*
Y480000D01*
X620000Y440000D02*
Y455000D01*
X315000Y435000D02*
X1635000D01*
X315000D02*
Y565000D01*
D11*
X533400Y479900D02*
D03*
X558800D02*
D03*
X635000D02*
D03*
X1155700D02*
D03*
X1346200D02*
D03*
X1181100D02*
D03*
X1473200D02*
D03*
X1397000D02*
D03*
X1447800D02*
D03*
X1422400D02*
D03*
X1282700D02*
D03*
X1257300D02*
D03*
X1206500D02*
D03*
X1371600D02*
D03*
X1231900D02*
D03*
D12*
X584200D02*
D03*
X609600D02*
D03*
D13*
X560000Y455080D02*
D03*
Y444920D02*
D03*
X360000Y559920D02*
D03*
Y570080D02*
D03*
X585000Y455080D02*
D03*
Y444920D02*
D03*
X610000Y455080D02*
D03*
Y444920D02*
D03*
X1590000Y559920D02*
D03*
Y570080D02*
D03*
D14*
X982980Y533400D02*
D03*
X972820D02*
D03*
D15*
X1580000Y1175000D02*
D03*
Y790000D02*
D03*
X370000Y1175000D02*
D03*
Y790000D02*
D03*
X1580000Y1560000D02*
D03*
X370000D02*
D03*
D22*
X1532500Y1175000D02*
D03*
D23*
X829050Y1220000D02*
D03*
D24*
X1410400Y1100000D02*
D03*
D25*
X1166550Y582500D02*
D03*
D26*
X1545000Y500000D02*
D03*
Y1850000D02*
D03*
X407000D02*
D03*
Y500000D02*
D03*
M02*
