G04*
G04 #@! TF.GenerationSoftware,Altium Limited,Altium Designer,18.1.7 (191)*
G04*
G04 Layer_Color=255*
%FSLAX44Y44*%
%MOMM*%
G71*
G01*
G75*
%ADD11R,2.0000X2.5400*%
%ADD12R,1.8000X2.5400*%
%ADD13R,0.6000X0.6000*%
%ADD14R,0.6000X0.6000*%
%ADD15R,3.0000X3.0000*%
%ADD26C,1.5240*%
D11*
X533400Y479900D02*
D03*
X558800D02*
D03*
X635000D02*
D03*
X1155700D02*
D03*
X1346200D02*
D03*
X1181100D02*
D03*
X1473200D02*
D03*
X1397000D02*
D03*
X1447800D02*
D03*
X1422400D02*
D03*
X1282700D02*
D03*
X1257300D02*
D03*
X1206500D02*
D03*
X1371600D02*
D03*
X1231900D02*
D03*
D12*
X584200D02*
D03*
X609600D02*
D03*
D13*
X560000Y455080D02*
D03*
Y444920D02*
D03*
X360000Y559920D02*
D03*
Y570080D02*
D03*
X585000Y455080D02*
D03*
Y444920D02*
D03*
X610000Y455080D02*
D03*
Y444920D02*
D03*
X1590000Y559920D02*
D03*
Y570080D02*
D03*
D14*
X982980Y533400D02*
D03*
X972820D02*
D03*
D15*
X1580000Y1175000D02*
D03*
Y790000D02*
D03*
X370000Y1175000D02*
D03*
Y790000D02*
D03*
X1580000Y1560000D02*
D03*
X370000D02*
D03*
D26*
X1550000Y500000D02*
D03*
Y1850000D02*
D03*
X412000D02*
D03*
Y500000D02*
D03*
M02*
