G04*
G04 #@! TF.GenerationSoftware,Altium Limited,Altium Designer,18.1.7 (191)*
G04*
G04 Layer_Physical_Order=1*
G04 Layer_Color=255*
%FSLAX44Y44*%
%MOMM*%
G71*
G01*
G75*
%ADD10C,0.2000*%
%ADD13R,1.2700X2.7300*%
%ADD14R,0.6000X0.6000*%
%ADD15R,0.6000X0.6000*%
%ADD16R,3.0000X3.0000*%
%ADD22R,10.5000X115.0000*%
%ADD23R,92.8100X106.0000*%
%ADD24R,17.9200X129.5000*%
%ADD25R,28.3100X26.0000*%
%ADD26C,1.5240*%
D10*
X985000Y525000D02*
Y535000D01*
X590000Y480000D02*
X600000D01*
X960000Y525000D02*
X985000D01*
X955000Y530000D02*
X960000Y525000D01*
X600000Y530000D02*
X955000D01*
X597700Y527700D02*
X600000Y530000D01*
X597700Y481350D02*
Y527700D01*
X625000Y470080D02*
Y505000D01*
X610000Y455080D02*
X625000Y470080D01*
X609920Y444920D02*
X610000Y445000D01*
X650000Y455000D02*
Y480000D01*
X639920Y444920D02*
X650000Y455000D01*
X610000Y444920D02*
X639920D01*
X680000Y440000D02*
X1630000D01*
X680000D02*
Y495000D01*
X666350Y508650D02*
X680000Y495000D01*
X623100Y508650D02*
X666350D01*
X1590000Y560000D02*
X1630000D01*
X585000Y475000D02*
X590000Y480000D01*
X585000Y455080D02*
Y475000D01*
X545000Y455000D02*
X560000D01*
X570000Y475000D02*
Y500000D01*
X560000Y465000D02*
X570000Y475000D01*
X525000Y485000D02*
Y525000D01*
Y455000D02*
Y485000D01*
X1590000Y570000D02*
X1635000D01*
X320000D02*
X370000D01*
X515000Y445000D02*
X525000Y455000D01*
X533400Y533400D02*
X972820D01*
X525000Y525000D02*
X533400Y533400D01*
X325000Y445000D02*
X515000D01*
X595000D02*
X597000D01*
X325000Y560000D02*
X359920D01*
X360000Y559920D01*
X320000Y555000D02*
X325000Y560000D01*
X370000Y550000D02*
Y570000D01*
X315000Y565000D02*
X320000Y570000D01*
X330000Y550000D02*
X370000D01*
X325000Y545000D02*
X330000Y550000D01*
X1630000Y440000D02*
Y560000D01*
X1635000Y435000D02*
Y570000D01*
X585000Y444920D02*
X609920D01*
X560000D02*
X585000D01*
X560000Y455080D02*
Y465000D01*
X320000Y440000D02*
Y555000D01*
X325000Y445000D02*
Y545000D01*
X530000Y440000D02*
X545000Y455000D01*
X320000Y440000D02*
X530000D01*
X315000Y435000D02*
X1635000D01*
X315000D02*
Y565000D01*
D13*
X1463500Y476350D02*
D03*
X1438100Y503650D02*
D03*
X1412700Y476350D02*
D03*
X1387300Y503650D02*
D03*
X1361900Y476350D02*
D03*
X1336500Y503650D02*
D03*
X1233500Y476350D02*
D03*
X1208100Y503650D02*
D03*
X1182700Y476350D02*
D03*
X1157300Y503650D02*
D03*
X1131900Y476350D02*
D03*
X1106500Y503650D02*
D03*
X521500Y508650D02*
D03*
X546900Y481350D02*
D03*
X572300Y508650D02*
D03*
X597700Y481350D02*
D03*
X623100Y508650D02*
D03*
X648500Y481350D02*
D03*
D14*
X560000Y455080D02*
D03*
Y444920D02*
D03*
X360000Y559920D02*
D03*
Y570080D02*
D03*
X585000Y455080D02*
D03*
Y444920D02*
D03*
X610000Y455080D02*
D03*
Y444920D02*
D03*
X1590000Y559920D02*
D03*
Y570080D02*
D03*
D15*
X982980Y533400D02*
D03*
X972820D02*
D03*
D16*
X1580000Y1175000D02*
D03*
Y790000D02*
D03*
X370000Y1175000D02*
D03*
Y790000D02*
D03*
X1580000Y1560000D02*
D03*
X370000D02*
D03*
D22*
X1517500Y1175000D02*
D03*
D23*
X844050Y1220000D02*
D03*
D24*
X1410400Y1102500D02*
D03*
D25*
X1166550Y585000D02*
D03*
D26*
X1545000Y500000D02*
D03*
Y1850000D02*
D03*
X407000D02*
D03*
Y500000D02*
D03*
M02*
