G04*
G04 #@! TF.GenerationSoftware,Altium Limited,Altium Designer,18.1.7 (191)*
G04*
G04 Layer_Color=65535*
%FSLAX44Y44*%
%MOMM*%
G71*
G01*
G75*
%ADD10C,0.2000*%
%ADD11C,0.1000*%
%ADD12C,0.2540*%
D10*
X1467000Y456000D02*
G03*
X1466000Y456000I-500J0D01*
G01*
D02*
G03*
X1467000Y456000I500J0D01*
G01*
D02*
G03*
X1466000Y456000I-500J0D01*
G01*
X1237000D02*
G03*
X1236000Y456000I-500J0D01*
G01*
D02*
G03*
X1237000Y456000I500J0D01*
G01*
D02*
G03*
X1236000Y456000I-500J0D01*
G01*
X518000Y529000D02*
G03*
X519000Y529000I500J0D01*
G01*
D02*
G03*
X518000Y529000I-500J0D01*
G01*
D02*
G03*
X519000Y529000I500J0D01*
G01*
X350000Y1800000D02*
X1600000D01*
Y550000D02*
Y1800000D01*
X350000Y550000D02*
Y1800000D01*
Y550000D02*
X1600000D01*
X1365000Y530000D02*
Y539997D01*
X1369998D01*
X1371664Y538331D01*
Y534998D01*
X1369998Y533332D01*
X1365000D01*
X1374997Y539997D02*
Y533332D01*
X1378329Y530000D01*
X1381661Y533332D01*
Y539997D01*
X1394990Y530000D02*
Y536665D01*
X1398323Y539997D01*
X1401655Y536665D01*
Y530000D01*
Y534998D01*
X1394990D01*
X1404987Y530000D02*
Y536665D01*
X1409986D01*
X1411652Y534998D01*
Y530000D01*
X1416650D02*
X1419982D01*
X1421648Y531666D01*
Y534998D01*
X1419982Y536665D01*
X1416650D01*
X1414984Y534998D01*
Y531666D01*
X1416650Y530000D01*
X1431645Y539997D02*
Y530000D01*
X1426647D01*
X1424981Y531666D01*
Y534998D01*
X1426647Y536665D01*
X1431645D01*
X1439976Y530000D02*
X1436644D01*
X1434977Y531666D01*
Y534998D01*
X1436644Y536665D01*
X1439976D01*
X1441642Y534998D01*
Y533332D01*
X1434977D01*
X1120000Y530000D02*
Y539997D01*
X1124998D01*
X1126665Y538331D01*
Y534998D01*
X1124998Y533332D01*
X1120000D01*
X1129997Y539997D02*
Y533332D01*
X1133329Y530000D01*
X1136661Y533332D01*
Y539997D01*
X1149990D02*
Y530000D01*
Y533332D01*
X1156655Y539997D01*
X1151656Y534998D01*
X1156655Y530000D01*
X1161653Y536665D02*
X1164986D01*
X1166652Y534998D01*
Y530000D01*
X1161653D01*
X1159987Y531666D01*
X1161653Y533332D01*
X1166652D01*
X1171650Y538331D02*
Y536665D01*
X1169984D01*
X1173316D01*
X1171650D01*
Y531666D01*
X1173316Y530000D01*
X1178315Y539997D02*
Y530000D01*
Y534998D01*
X1179981Y536665D01*
X1183313D01*
X1184979Y534998D01*
Y530000D01*
X1189977D02*
X1193310D01*
X1194976Y531666D01*
Y534998D01*
X1193310Y536665D01*
X1189977D01*
X1188311Y534998D01*
Y531666D01*
X1189977Y530000D01*
X1204973Y539997D02*
Y530000D01*
X1199974D01*
X1198308Y531666D01*
Y534998D01*
X1199974Y536665D01*
X1204973D01*
X1213303Y530000D02*
X1209971D01*
X1208305Y531666D01*
Y534998D01*
X1209971Y536665D01*
X1213303D01*
X1214969Y534998D01*
Y533332D01*
X1208305D01*
X1611664Y543331D02*
X1609998Y544997D01*
X1606666D01*
X1605000Y543331D01*
Y536666D01*
X1606666Y535000D01*
X1609998D01*
X1611664Y536666D01*
X340000Y535000D02*
Y541665D01*
X343332Y544997D01*
X346665Y541665D01*
Y535000D01*
Y539998D01*
X340000D01*
X975000Y519997D02*
Y510000D01*
X979998D01*
X981665Y511666D01*
Y513332D01*
X979998Y514998D01*
X975000D01*
X979998D01*
X981665Y516665D01*
Y518331D01*
X979998Y519997D01*
X975000D01*
X501665Y538331D02*
X499998Y539997D01*
X496666D01*
X495000Y538331D01*
Y531666D01*
X496666Y530000D01*
X499998D01*
X501665Y531666D01*
Y534998D01*
X498332D01*
X504997Y530000D02*
Y539997D01*
X511661Y530000D01*
Y539997D01*
X514994D02*
Y530000D01*
X519992D01*
X521658Y531666D01*
Y538331D01*
X519992Y539997D01*
X514994D01*
X645000D02*
Y533332D01*
X648332Y530000D01*
X651665Y533332D01*
Y539997D01*
X661661Y538331D02*
X659995Y539997D01*
X656663D01*
X654997Y538331D01*
Y531666D01*
X656663Y530000D01*
X659995D01*
X661661Y531666D01*
X671658Y538331D02*
X669992Y539997D01*
X666660D01*
X664994Y538331D01*
Y531666D01*
X666660Y530000D01*
X669992D01*
X671658Y531666D01*
X626665Y538331D02*
X624998Y539997D01*
X621666D01*
X620000Y538331D01*
Y531666D01*
X621666Y530000D01*
X624998D01*
X626665Y531666D01*
X595000Y539997D02*
Y530000D01*
X599998D01*
X601665Y531666D01*
Y533332D01*
X599998Y534998D01*
X595000D01*
X599998D01*
X601665Y536665D01*
Y538331D01*
X599998Y539997D01*
X595000D01*
X570000Y530000D02*
Y536665D01*
X573332Y539997D01*
X576665Y536665D01*
Y530000D01*
Y534998D01*
X570000D01*
D11*
X1422000Y478000D02*
X1456000D01*
X1422000D02*
X1456000D01*
X1396000Y502000D02*
X1430000D01*
X1396000D02*
X1430000D01*
X1372000Y478000D02*
X1404000D01*
X1372000D02*
X1404000D01*
X1346000Y502000D02*
X1378000D01*
X1346000D02*
X1378000D01*
X1324000Y478000D02*
X1352000D01*
X1324000D02*
X1352000D01*
X1323800D02*
Y502000D01*
Y478000D02*
Y502000D01*
X1328000D01*
X1323800D02*
X1328000D01*
X1448000D02*
X1476000D01*
X1448000D02*
X1476000D01*
X1476200Y478000D02*
Y502000D01*
Y478000D02*
Y502000D01*
X1472000Y478000D02*
X1476000D01*
X1472000D02*
X1476000D01*
X1192000D02*
X1226000D01*
X1192000D02*
X1226000D01*
X1166000Y502000D02*
X1200000D01*
X1166000D02*
X1200000D01*
X1142000Y478000D02*
X1174000D01*
X1142000D02*
X1174000D01*
X1116000Y502000D02*
X1148000D01*
X1116000D02*
X1148000D01*
X1094000Y478000D02*
X1122000D01*
X1094000D02*
X1122000D01*
X1093800D02*
Y502000D01*
Y478000D02*
Y502000D01*
X1098000D01*
X1093800D02*
X1098000D01*
X1218000D02*
X1246000D01*
X1218000D02*
X1246000D01*
X1246200Y478000D02*
Y502000D01*
Y478000D02*
Y502000D01*
X1242000Y478000D02*
X1246000D01*
X1242000D02*
X1246000D01*
X529000Y507000D02*
X563000D01*
X529000D02*
X563000D01*
X555000Y483000D02*
X589000D01*
X555000D02*
X589000D01*
X581000Y507000D02*
X613000D01*
X581000D02*
X613000D01*
X607000Y483000D02*
X639000D01*
X607000D02*
X639000D01*
X633000Y507000D02*
X661000D01*
X633000D02*
X661000D01*
X661200Y483000D02*
Y507000D01*
Y483000D02*
Y507000D01*
X657000Y483000D02*
X661200D01*
X657000D02*
X661200D01*
X509000D02*
X537000D01*
X509000D02*
X537000D01*
X508800D02*
Y507000D01*
Y483000D02*
Y507000D01*
X509000D02*
X513000D01*
X509000D02*
X513000D01*
D12*
X916849Y1776248D02*
X912683D01*
X914766D01*
Y1765835D01*
X912683Y1763752D01*
X910601D01*
X908518Y1765835D01*
X921014Y1776248D02*
Y1763752D01*
X929345D01*
X941841Y1774165D02*
X939758Y1776248D01*
X935593D01*
X933510Y1774165D01*
Y1765835D01*
X935593Y1763752D01*
X939758D01*
X941841Y1765835D01*
X954337Y1776248D02*
X950171D01*
X952254D01*
Y1765835D01*
X950171Y1763752D01*
X948089D01*
X946006Y1765835D01*
X958502Y1776248D02*
Y1763752D01*
X966833D01*
X979329Y1774165D02*
X977246Y1776248D01*
X973081D01*
X970998Y1774165D01*
Y1765835D01*
X973081Y1763752D01*
X977246D01*
X979329Y1765835D01*
X991825Y1776248D02*
X987659D01*
X989742D01*
Y1765835D01*
X987659Y1763752D01*
X985577D01*
X983494Y1765835D01*
X995990Y1776248D02*
Y1763752D01*
X1004321D01*
X1016816Y1774165D02*
X1014734Y1776248D01*
X1010568D01*
X1008486Y1774165D01*
Y1765835D01*
X1010568Y1763752D01*
X1014734D01*
X1016816Y1765835D01*
X1029312Y1776248D02*
X1025147D01*
X1027230D01*
Y1765835D01*
X1025147Y1763752D01*
X1023064D01*
X1020982Y1765835D01*
X1033478Y1776248D02*
Y1763752D01*
X1041808D01*
X1054304Y1774165D02*
X1052222Y1776248D01*
X1048056D01*
X1045974Y1774165D01*
Y1765835D01*
X1048056Y1763752D01*
X1052222D01*
X1054304Y1765835D01*
M02*
