G04*
G04 #@! TF.GenerationSoftware,Altium Limited,Altium Designer,18.1.7 (191)*
G04*
G04 Layer_Color=65535*
%FSLAX44Y44*%
%MOMM*%
G71*
G01*
G75*
%ADD10C,0.1000*%
%ADD11C,0.2000*%
D10*
X350000Y1800000D02*
X1600000D01*
Y550000D02*
Y1800000D01*
X350000Y550000D02*
Y1800000D01*
Y550000D02*
X1600000D01*
D11*
X1400000Y512700D02*
Y522697D01*
X1404998D01*
X1406664Y521031D01*
Y517698D01*
X1404998Y516032D01*
X1400000D01*
X1409997Y522697D02*
Y516032D01*
X1413329Y512700D01*
X1416661Y516032D01*
Y522697D01*
X1426658Y512700D02*
X1419994D01*
X1426658Y519365D01*
Y521031D01*
X1424992Y522697D01*
X1421660D01*
X1419994Y521031D01*
X1206900Y512700D02*
Y522697D01*
X1211898D01*
X1213565Y521031D01*
Y517698D01*
X1211898Y516032D01*
X1206900D01*
X1216897Y522697D02*
Y516032D01*
X1220229Y512700D01*
X1223561Y516032D01*
Y522697D01*
X1226894Y512700D02*
X1230226D01*
X1228560D01*
Y522697D01*
X1226894Y521031D01*
X1611664Y543331D02*
X1609998Y544997D01*
X1606666D01*
X1605000Y543331D01*
Y536666D01*
X1606666Y535000D01*
X1609998D01*
X1611664Y536666D01*
X340000Y535000D02*
Y541665D01*
X343332Y544997D01*
X346665Y541665D01*
Y535000D01*
Y539998D01*
X340000D01*
X975000Y519997D02*
Y510000D01*
X979998D01*
X981665Y511666D01*
Y513332D01*
X979998Y514998D01*
X975000D01*
X979998D01*
X981665Y516665D01*
Y518331D01*
X979998Y519997D01*
X975000D01*
X511665Y503331D02*
X509998Y504997D01*
X506666D01*
X505000Y503331D01*
Y496666D01*
X506666Y495000D01*
X509998D01*
X511665Y496666D01*
Y499998D01*
X508332D01*
X514997Y495000D02*
Y504997D01*
X521661Y495000D01*
Y504997D01*
X524994D02*
Y495000D01*
X529992D01*
X531658Y496666D01*
Y503331D01*
X529992Y504997D01*
X524994D01*
X630000D02*
Y498332D01*
X633332Y495000D01*
X636665Y498332D01*
Y504997D01*
X646661Y503331D02*
X644995Y504997D01*
X641663D01*
X639997Y503331D01*
Y496666D01*
X641663Y495000D01*
X644995D01*
X646661Y496666D01*
X656658Y503331D02*
X654992Y504997D01*
X651660D01*
X649994Y503331D01*
Y496666D01*
X651660Y495000D01*
X654992D01*
X656658Y496666D01*
X611665Y503331D02*
X609998Y504997D01*
X606666D01*
X605000Y503331D01*
Y496666D01*
X606666Y495000D01*
X609998D01*
X611665Y496666D01*
X580000Y504997D02*
Y495000D01*
X584998D01*
X586665Y496666D01*
Y498332D01*
X584998Y499998D01*
X580000D01*
X584998D01*
X586665Y501665D01*
Y503331D01*
X584998Y504997D01*
X580000D01*
X555000Y495000D02*
Y501665D01*
X558332Y504997D01*
X561665Y501665D01*
Y495000D01*
Y499998D01*
X555000D01*
M02*
